<?xml version="1.0" encoding="UTF-8"?>
<svg width="18px" height="11px" viewBox="0 0 18 11" version="1.1" xmlns="http://www.w3.org/2000/svg" xmlns:xlink="http://www.w3.org/1999/xlink">
    <!-- Generator: Sketch 52.3 (67297) - http://www.bohemiancoding.com/sketch -->
    <title>ICONO/ILUSTRATIVO/PEOPLE/feedback</title>
    <desc>Created with Sketch.</desc>
    <g id="Pago-Facturas" stroke="none" stroke-width="1" fill="none" fill-rule="evenodd">
        <g id="03" transform="translate(-312.000000, -746.000000)">
            <g id="ICONO/ILUSTRATIVO/PEOPLE/feedback" transform="translate(312.000000, 742.000000)">
                <g>
                    <rect id="Rectangle" fill-opacity="0" fill="#BCD0F6" x="0" y="0" width="18" height="18"></rect>
                    <path d="M17.7681218,7.13127062 C17.6421691,7.12939073 17.5318822,7.23341133 17.5300023,7.36312376 C17.5224828,7.85753491 17.4084361,8.34004009 17.1997683,8.75800237 C17.0149124,9.13460706 16.7523544,9.45920145 16.4415459,9.69794752 C16.4196138,9.71486653 16.4014415,9.73617195 16.3876557,9.7599839 C16.090633,10.0269283 15.2547084,10.9042105 14.6130392,11.7821192 C14.238941,12.2965826 14.1530927,12.8467638 14.08479,13.288538 C14.0208738,13.6945943 13.9776363,13.8894763 13.8667228,13.9208078 L13.8654695,13.9208078 C13.7288641,13.9208078 13.1536177,13.5899471 13.0821819,12.8755888 C13.0126259,12.1844158 13.5910055,11.1109984 13.8378978,10.6523052 C13.862963,10.6059345 13.884895,10.5652036 13.9036939,10.5294857 L14.3116301,10.5294857 C14.4413426,10.5294857 14.5466164,10.4242118 14.5466164,10.2944994 C14.5466164,10.1647869 14.4413426,10.0595131 14.3116301,10.0595131 L11.235503,10.0595131 L11.2348763,10.0595131 L11.2317432,10.0595131 C10.9710651,10.0670326 10.794982,9.94985282 10.6978543,9.85460504 C10.5787946,9.73805184 10.5054789,9.57951443 10.5054789,9.44228244 C10.5054789,9.25554667 10.6727891,9.01554734 10.8043815,9.01429408 L10.8050081,9.01429408 L13.867976,9.01429408 C13.9976885,9.01429408 14.1029623,8.90902022 14.1029623,8.77930779 C14.1029623,8.64959536 13.9976885,8.5443215 13.867976,8.5443215 L10.8031282,8.5443215 L10.8031282,8.5443215 L10.8025016,8.5443215 L10.7993684,8.5443215 C10.754251,8.5443215 10.708507,8.52176282 10.6646429,8.47664545 C10.5668886,8.37889115 10.5029724,8.20594125 10.5054789,8.0467772 L10.5054789,8.0467772 L10.5054789,8.04615057 C10.5061055,7.96468866 10.5249044,7.88573326 10.5593691,7.81241754 C10.652737,7.62317525 10.8388461,7.50160901 11.0343547,7.50160901 L11.0399944,7.50160901 L11.040621,7.50160901 L11.1935187,7.50160901 L11.1960253,7.50160901 L11.2010383,7.50160901 L11.2073046,7.50160901 L13.867976,7.50160901 C13.9976885,7.50160901 14.1029623,7.39570852 14.1029623,7.26662272 C14.1029623,7.13691029 13.9976885,7.03163643 13.867976,7.03163643 L11.2054247,7.03163643 L11.1985318,7.03163643 C11.1465215,7.03038317 11.0995242,7.00845112 11.0550335,6.96333375 C10.9591591,6.86808598 10.8952428,6.68761651 10.8971227,6.5209329 C10.8996292,6.43571121 10.9190548,6.35550255 10.9535194,6.28281346 C11.0425009,6.09983747 11.2204638,5.98516416 11.4335181,5.98955057 L11.8721591,5.98829731 L11.8727858,5.98767068 L11.8734124,5.98829731 L13.867976,5.98829731 C13.9976885,5.98829731 14.1029623,5.88302346 14.1029623,5.75331103 C14.1029623,5.62359859 13.9976885,5.51832474 13.867976,5.51832474 L11.874039,5.51832474 C11.8257885,5.51769811 11.7869375,5.45754162 11.7618722,5.40678458 C11.714875,5.30840365 11.6879299,5.16678525 11.6891832,5.03268641 C11.6916897,4.94495819 11.7111152,4.85848324 11.7449532,4.78391426 C11.8345613,4.59153882 12.0125243,4.47435899 12.2023932,4.47561225 C12.2036465,4.47561225 12.2042731,4.47498562 12.2048997,4.47498562 L12.2048997,4.47561225 C12.2048997,4.47561225 14.6274517,4.46997258 16.1814944,4.46997258 C16.3112068,4.46997258 16.4164806,4.36469872 16.4164806,4.23498629 C16.4164806,4.10527386 16.3112068,4 16.1814944,4 C14.6274517,4 12.2042731,4.00563967 12.2042731,4.00563967 L12.1980068,4.00563967 C11.8214021,4.00563967 11.4855284,4.2268401 11.3182181,4.58777904 C11.257435,4.72125125 11.223597,4.87101584 11.2192106,5.02391359 C11.2173307,5.19937002 11.2492888,5.37670633 11.3050589,5.5258443 C10.9741982,5.56218884 10.6803087,5.76960341 10.5311707,6.07790542 C10.4666278,6.210751 10.4315365,6.35487592 10.4271501,6.51216008 C10.4246436,6.73649366 10.4885599,6.96208049 10.5994734,7.13879018 C10.4039648,7.23779774 10.2385345,7.3994683 10.1370204,7.6075095 C10.0712242,7.74411486 10.0373862,7.88949304 10.0355063,8.03925764 L10.0355063,8.03988427 L10.0355063,8.0405109 L10.0355063,8.04113753 L10.0355063,8.04176416 C10.0317465,8.31622814 10.137647,8.59507854 10.3112236,8.78244094 C10.1426601,8.96103052 10.0355063,9.21105593 10.0355063,9.44228244 C10.0355063,9.70421382 10.1595791,9.98431747 10.3676203,10.1892255 C10.5907006,10.4091727 10.8927363,10.5294857 11.2192106,10.5294857 L11.235503,10.5294857 L11.2386361,10.5294857 L13.3710584,10.5294857 C13.0671428,11.0965859 12.5345072,12.1342854 12.6147158,12.9232127 C12.6886582,13.6638894 13.1529911,14.0586664 13.3491263,14.1940185 C13.4424942,14.2585614 13.6593082,14.3907804 13.8654695,14.3907804 C13.9030673,14.3907804 13.9387852,14.3863939 13.9745031,14.3769945 C14.4087578,14.2598147 14.4770605,13.8230535 14.5491229,13.3606005 C14.6130392,12.9482779 14.6857283,12.4814384 14.9927771,12.0590897 C15.6676577,11.135437 16.5568458,10.2230635 16.7423283,10.0745522 C16.7605006,10.0601397 16.7755397,10.0425941 16.7880723,10.0237952 C17.1289591,9.74619804 17.4165823,9.38212595 17.6208637,8.96667019 C17.8602364,8.48667153 17.9912021,7.93461041 17.9999749,7.36939006 C18.0018548,7.23967763 17.8978342,7.13315051 17.7681218,7.13127062 M7.68877659,9.60833941 C7.86172649,9.79570181 7.96762698,10.0751788 7.96449383,10.3490162 L7.96449383,10.3502695 L7.96449383,10.3502695 L7.96449383,10.3508961 C7.96449383,10.3515227 7.9638672,10.3515227 7.9638672,10.3521493 C7.96198731,10.5012873 7.92814928,10.6460389 7.86297975,10.7832709 C7.76083905,10.991312 7.5954087,11.1529826 7.40052674,11.2526168 C7.51081364,11.4286999 7.57472991,11.6542867 7.57222339,11.8792469 C7.56783698,12.0365311 7.53211906,12.1812826 7.46820279,12.3135016 C7.3184382,12.6230568 7.03645465,12.8242051 6.69494124,12.8636828 C6.77327001,13.0723506 6.78078957,13.2860315 6.77953631,13.3674934 C6.77577653,13.5197645 6.74256513,13.6695291 6.68178201,13.8030013 C6.51384514,14.1639403 6.17797141,14.3857673 5.80199335,14.3857673 L5.79510042,14.3857673 C5.79510042,14.3857673 3.37254844,14.3907804 1.81787916,14.3907804 C1.68816673,14.3907804 1.58289287,14.2855065 1.58289287,14.1557941 C1.58289287,14.0260816 1.68816673,13.9208078 1.81787916,13.9208078 C3.37192181,13.9208078 5.79447379,13.9157947 5.79447379,13.9157947 L5.79447379,13.9164214 C5.79572705,13.9164214 5.79635368,13.9157947 5.79698031,13.9157947 C5.99186227,13.9308339 6.16543881,13.7992415 6.25442028,13.6074927 C6.28825831,13.5322971 6.30768384,13.4458222 6.30956373,13.3587206 C6.31207025,13.1726114 6.25880669,12.9789827 6.18298445,12.9012806 C6.15729262,12.8749621 6.13974697,12.8730822 6.12533448,12.8730822 L4.13202413,12.8730822 C4.0023117,12.8730822 3.89703784,12.7678084 3.89703784,12.638096 C3.89703784,12.5083835 4.0023117,12.4031097 4.13202413,12.4031097 L6.12596111,12.4031097 L6.12658774,12.4031097 L6.12721437,12.4031097 L6.56585544,12.4018564 C6.77452327,12.3987233 6.95687263,12.2909429 7.04522747,12.1079669 C7.08094539,12.0359044 7.10037092,11.9556958 7.10225081,11.8692208 C7.1041307,11.7031638 7.04021443,11.523321 6.94434002,11.42682 C6.89984929,11.3823292 6.85285203,11.3597705 6.8002151,11.3591439 L6.7939488,11.3591439 L4.13202413,11.3591439 C4.0023117,11.3591439 3.89703784,11.2544967 3.89703784,11.1241576 C3.89703784,10.9944452 4.0023117,10.8891713 4.13202413,10.8891713 L6.79206891,10.8891713 L6.80272162,10.8891713 L6.80522814,10.8891713 L6.95937915,10.8891713 L6.96000578,10.889798 L6.96125904,10.8891713 L6.96564545,10.8891713 C7.16115404,10.8891713 7.34726318,10.7676051 7.44000444,10.5783628 C7.47509572,10.5056737 7.49389462,10.4260917 7.49452125,10.3446298 L7.49452125,10.3440032 L7.49452125,10.3440032 C7.49640114,10.1842125 7.43248487,10.0118892 7.33535721,9.91350827 C7.29086647,9.86901754 7.24512247,9.84645885 7.20000511,9.84645885 L7.19812522,9.84645885 L7.19624533,9.84645885 L7.19624533,9.84645885 L4.13202413,9.84645885 C4.0023117,9.84645885 3.89703784,9.741185 3.89703784,9.61147256 C3.89703784,9.48176013 4.0023117,9.37648628 4.13202413,9.37648628 L7.19436544,9.37648628 C7.32595776,9.37523302 7.49452125,9.13586032 7.49452125,8.94912455 C7.49452125,8.81189255 7.4205789,8.65335514 7.30151918,8.53617531 C7.20501815,8.44092753 7.03457476,8.32124118 6.76825697,8.33126727 L6.76575045,8.33126727 L6.76449719,8.33126727 L3.68774338,8.33126727 C3.55803095,8.33126727 3.4527571,8.22599341 3.4527571,8.09628098 C3.4527571,7.96656855 3.55803095,7.86129469 3.68774338,7.86129469 L4.09567958,7.86129469 C4.11447848,7.82557677 4.13703717,7.78547245 4.16147574,7.73910182 C4.408368,7.28040858 4.98737422,6.20636459 4.91719164,5.51519159 C4.84575581,4.8014599 4.27050938,4.46997258 4.13390402,4.46997258 L4.13327739,4.46997258 C4.02173723,4.50193071 3.97849975,4.69681267 3.91521011,5.10224235 C3.8462808,5.5446432 3.76043248,6.0941978 3.38633431,6.60866111 C2.74466508,7.48656989 1.90936715,8.36385203 1.61171786,8.63079645 C1.59793199,8.6546084 1.57975972,8.67591382 1.55782767,8.69283283 C1.24639251,8.9315789 0.984461124,9.25679993 0.798978614,9.63277799 C0.59031079,10.0513669 0.476890741,10.5332454 0.46999781,11.0282832 C0.46811792,11.1567424 0.362844063,11.2595097 0.235011522,11.2595097 L0.231251741,11.2595097 C0.10153931,11.2576298 -0.00185465672,11.1511027 2.52335854e-05,11.0213903 C0.00817142491,10.4567966 0.139137116,9.90410882 0.377883185,9.42411016 C0.582791229,9.00928104 0.869787815,8.64458232 1.21192785,8.36761181 C1.22383382,8.34818628 1.23949958,8.33064064 1.25767185,8.31622814 C1.44252773,8.16834344 2.33108921,7.25659664 3.00659646,6.33169061 C3.31364521,5.90996855 3.38696094,5.44250249 3.45087721,5.03017989 C3.52293967,4.5683535 3.59061572,4.13159232 4.02549701,4.01378586 C4.25860341,3.95174948 4.54058695,4.12093961 4.65087385,4.19676185 C4.84638244,4.33211395 5.31134198,4.72689092 5.3846577,5.46819433 C5.46486635,6.256495 4.9328574,7.29419445 4.6289418,7.86129469 L6.76449719,7.86129469 C6.76575045,7.86129469 6.76637708,7.86192132 6.76763034,7.86192132 C7.10225081,7.86944088 7.40616641,7.97910115 7.63175325,8.20155483 C7.83979444,8.40708951 7.96449383,8.6859399 7.96449383,8.94912455 C7.96449383,9.17972442 7.85734008,9.42974983 7.68877659,9.60833941" id="Page-1" fill="#009FDB"></path>
                </g>
            </g>
        </g>
    </g>
</svg>