<?xml version="1.0" encoding="UTF-8"?>
<svg width="18px" height="18px" viewBox="0 0 18 18" version="1.1" xmlns="http://www.w3.org/2000/svg" xmlns:xlink="http://www.w3.org/1999/xlink">
    <!-- Generator: Sketch 52.3 (67297) - http://www.bohemiancoding.com/sketch -->
    <title>icon.ICONO/ILUSTRATIVO/DEVICES/refurbished device</title>
    <desc>Created with Sketch.</desc>
    <g id="ICONO/ILUSTRATIVO/DEVICES/refurbished-device" stroke="none" stroke-width="1" fill="none" fill-rule="evenodd">
        <g id="refurbished-device-slim">
            <g>
                <rect id="Rectangle" fill-opacity="0" fill="#BCD0F6" x="0" y="0" width="18" height="18"></rect>
                <path d="M10.8969032,6.8978714 L10.7999355,7.59929076 C10.7830968,7.72412947 10.714,7.82980688 10.6106452,7.88845205 C10.5543226,7.92038753 10.4910323,7.93664559 10.426,7.93664559 C10.372,7.93664559 10.3168387,7.92561334 10.264,7.90296817 L9.61251613,7.62483914 C9.50219355,7.57780688 9.45051613,7.45006495 9.49812903,7.33916172 C9.54516129,7.2282585 9.67290323,7.17716172 9.78380645,7.22419398 L10.0497419,7.33800043 L9.54516129,6.46412947 C9.35354839,6.13258108 9.07832258,6.13258108 8.88670968,6.46412947 L8.15335484,7.73516172 C8.09296774,7.83909721 7.96,7.87509721 7.85606452,7.81471011 C7.75154839,7.75490366 7.71612903,7.62193592 7.77651613,7.51741979 L8.50987097,6.24638753 C8.68522581,5.94212947 8.94303226,5.76793592 9.21593548,5.76793592 C9.48941935,5.76793592 9.74664516,5.94212947 9.92258065,6.24638753 L10.4265806,7.11967785 L10.4654839,6.83806495 C10.4817419,6.71903269 10.5903226,6.63658108 10.7110968,6.6522585 C10.830129,6.66851656 10.9131613,6.77883914 10.8969032,6.8978714 L10.8969032,6.8978714 Z M6.62741935,9.50671011 L7.07277419,8.73561334 L6.80451613,8.84477463 C6.69245161,8.89006495 6.56645161,8.83606495 6.52116129,8.72516172 C6.47587097,8.61367785 6.52929032,8.48651656 6.64077419,8.44122624 L7.29632258,8.17471011 C7.41303226,8.12651656 7.53903226,8.1334843 7.64122581,8.1938714 C7.744,8.25367785 7.81135484,8.36051656 7.82703226,8.48651656 L7.9123871,9.18967785 C7.92690323,9.30929076 7.84154839,9.4178714 7.72193548,9.43180688 C7.71322581,9.43296817 7.70451613,9.43354882 7.69580645,9.43354882 C7.58722581,9.43354882 7.49316129,9.35283914 7.47980645,9.24193592 L7.44612903,8.96032301 L7.00425806,9.72445205 C6.90903226,9.89051656 6.8863871,10.0420649 6.94329032,10.1407746 C7.00019355,10.2389037 7.14245161,10.2946456 7.33348387,10.2946456 L8.75258065,10.2946456 C8.87277419,10.2946456 8.97032258,10.392194 8.97032258,10.5123875 C8.97032258,10.6325811 8.87277419,10.7301295 8.75258065,10.7301295 L7.33348387,10.7301295 C6.97696774,10.7301295 6.70464516,10.598323 6.56645161,10.3585166 C6.42941935,10.1216133 6.45148387,9.81154882 6.62741935,9.50671011 L6.62741935,9.50671011 Z M11.0983871,10.7301295 L10.1374194,10.7301295 L10.3690968,10.9107101 C10.4643226,10.984452 10.4817419,11.1209037 10.4074194,11.2161295 C10.3644516,11.2712908 10.3005806,11.300323 10.2355484,11.300323 C10.1890968,11.300323 10.1420645,11.2852262 10.102,11.254452 L9.54341935,10.8201295 C9.44354839,10.7429037 9.38606452,10.6302585 9.38722581,10.5118069 C9.38780645,10.3927746 9.44587097,10.2807101 9.54748387,10.2040649 L10.1141935,9.77903269 C10.2105806,9.70645205 10.3470323,9.72619398 10.4190323,9.82200043 C10.4916129,9.91838753 10.471871,10.0548391 10.3754839,10.1268391 L10.1519355,10.2946456 L11.0983871,10.2946456 C11.29,10.2946456 11.4328387,10.238323 11.4891613,10.140194 C11.5460645,10.0420649 11.524,9.89051656 11.4281935,9.72445205 L10.741871,8.53703269 C10.6820645,8.43309721 10.7174839,8.29954882 10.822,8.23974237 C10.9265161,8.17935527 11.0594839,8.21535527 11.1192903,8.31929076 L11.8050323,9.50671011 C11.9809677,9.81154882 12.0030323,10.1216133 11.8665806,10.3579359 C11.7278065,10.598323 11.4549032,10.7301295 11.0983871,10.7301295 L11.0983871,10.7301295 Z M10.0909677,16.4947746 L8.34148387,16.4947746 C8.11329032,16.4947746 7.92806452,16.3089682 7.92806452,16.0813553 C7.92806452,15.8537424 8.11329032,15.6685166 8.34090323,15.6685166 L10.0915484,15.6685166 C10.3191613,15.6685166 10.5043871,15.8537424 10.5043871,16.0813553 C10.5043871,16.3089682 10.3191613,16.4947746 10.0909677,16.4947746 L10.0909677,16.4947746 Z M10.0915484,15.2330327 L8.34090323,15.2330327 C7.87290323,15.2330327 7.49258065,15.6133553 7.49258065,16.0813553 C7.49258065,16.5487746 7.87290323,16.9296779 8.34090323,16.9302585 L10.0915484,16.9302585 L10.0915484,16.9302585 C10.5595484,16.9296779 10.939871,16.5487746 10.939871,16.0813553 C10.939871,15.6133553 10.5595484,15.2330327 10.0915484,15.2330327 L10.0915484,15.2330327 Z M13.297871,2.85135527 L13.297871,13.9393553 C13.297871,14.2970327 13.008129,14.5873553 12.6521935,14.5873553 L5.78025806,14.5873553 C5.66064516,14.5873553 5.56251613,14.4903875 5.56251613,14.3696133 C5.56251613,14.2494198 5.66064516,14.1518714 5.78025806,14.1518714 L12.6521935,14.1518714 C12.7700645,14.1518714 12.8623871,14.0589682 12.8623871,13.9393553 L12.8623871,2.85135527 C12.8623871,2.73638753 12.7683226,2.64232301 12.6521935,2.64232301 L5.78025806,2.64232301 C5.66412903,2.64232301 5.56948387,2.73638753 5.56948387,2.85135527 L5.56948387,10.6976133 C5.56948387,10.8178069 5.47193548,10.9153553 5.35174194,10.9153553 C5.23154839,10.9153553 5.134,10.8178069 5.134,10.6976133 L5.134,2.85135527 C5.134,2.49600043 5.42432258,2.20683914 5.78025806,2.20683914 L12.6521935,2.20683914 C13.008129,2.20683914 13.297871,2.49600043 13.297871,2.85135527 L13.297871,2.85135527 Z M13.9969677,16.1074843 C13.9969677,16.9505811 13.5765806,17.3831617 12.6742581,17.4690972 C11.6145806,17.5689682 9.24554839,17.5631617 9.22116129,17.564323 C9.19677419,17.5631617 6.81845161,17.5689682 5.75877419,17.4690972 C4.85587097,17.3831617 4.43548387,16.9505811 4.43548387,16.1074843 L4.43548387,1.93974237 C4.43548387,1.09606495 4.85587097,0.663484304 5.75877419,0.578129465 C6.72729032,0.48638753 8.79496774,0.482323014 9.16135484,0.482323014 L9.21535484,0.482323014 C9.24148387,0.482323014 11.6145806,0.478258498 12.6742581,0.578129465 C13.5765806,0.663484304 13.9969677,1.09606495 13.9969677,1.93974237 L13.9969677,16.1074843 Z M12.7149032,0.144968175 C11.6343226,0.0427746266 9.31464516,0.0474197878 9.21709677,0.0468391427 C9.11896774,0.0474197878 6.79812903,0.0427746266 5.71754839,0.144968175 C4.594,0.250645594 4,0.871355272 4,1.93974237 L4,16.1074843 C4,17.1752908 4.594,17.7960004 5.71754839,17.9028391 C6.69477419,17.9951617 8.69045161,17.9998069 9.13522581,17.9998069 L9.22116129,17.9998069 C9.3216129,18.0003875 11.6349032,18.0050327 12.7149032,17.9028391 C13.8384516,17.7960004 14.4324516,17.1752908 14.4324516,16.1074843 L14.4324516,1.93974237 C14.4324516,0.871355272 13.8384516,0.250645594 12.7149032,0.144968175 L12.7149032,0.144968175 Z" fill="#009FDB"></path>
            </g>
        </g>
    </g>
</svg>