<?xml version="1.0" encoding="UTF-8"?>
<svg width="18px" height="18px" viewBox="0 0 18 18" version="1.1" xmlns="http://www.w3.org/2000/svg" xmlns:xlink="http://www.w3.org/1999/xlink">
    <!-- Generator: Sketch 52.3 (67297) - http://www.bohemiancoding.com/sketch -->
    <title>icon.ICONO/ILUSTRATIVO/RETAIL/newpay</title>
    <desc>Created with Sketch.</desc>
    <g id="ICONO/ILUSTRATIVO/RETAIL/newpay" stroke="none" stroke-width="1" fill="none" fill-rule="evenodd">
        <g>
            <rect id="Rectangle" fill-opacity="0" fill="#BCD0F6" x="0" y="0" width="18" height="18"></rect>
            <path d="M11.0189032,11.0322581 C11.0189032,10.5845806 10.8853548,10.2344516 10.6182581,9.98303226 C10.3511613,9.7316129 9.88316129,9.50806452 9.21541935,9.31122581 L9.21541935,12.7416774 C9.78909677,12.6865161 10.2332903,12.51 10.5474194,12.2109677 C10.8615484,11.9125161 11.0189032,11.5194194 11.0189032,11.0322581 L11.0189032,11.0322581 Z M6.98748387,6.98922581 C6.98748387,7.41367742 7.11290323,7.74348387 7.36490323,7.97922581 C7.61632258,8.21496774 8.06806452,8.42341935 8.72012903,8.604 L8.72012903,5.46851613 C8.17780645,5.508 7.75393548,5.66303226 7.44735484,5.93419355 C7.14077419,6.20535484 6.98748387,6.55722581 6.98748387,6.98922581 L6.98748387,6.98922581 Z M8.70851613,14.5097419 L8.70851613,13.2956129 C8.28406452,13.2874839 7.84625806,13.2207097 7.39451613,13.0952903 C6.94219355,12.9692903 6.55548387,12.8003226 6.23322581,12.5883871 L6.43354839,12.1047097 C7.17212903,12.5297419 7.93045161,12.7492258 8.70851613,12.7649032 L8.70851613,9.17012903 C8.15051613,9.02845161 7.70458065,8.8676129 7.37070968,8.68645161 C7.03625806,8.50587097 6.79296774,8.28580645 6.63967742,8.02625806 C6.4863871,7.76729032 6.41032258,7.43690323 6.41032258,7.03625806 C6.41032258,6.64316129 6.51019355,6.29187097 6.71051613,5.98122581 C6.91083871,5.67116129 7.18606452,5.42554839 7.5356129,5.2443871 C7.88516129,5.06380645 8.28,4.9616129 8.72012903,4.93780645 L8.72012903,3.85374194 L9.22703226,3.85374194 L9.22703226,4.93780645 C9.9423871,4.96974194 10.6374194,5.17354839 11.313871,5.55096774 L11.1135484,6.03464516 C10.4609032,5.68858065 9.83206452,5.49987097 9.22703226,5.46851613 L9.22703226,8.74567742 C10.0916129,8.97329032 10.7047742,9.26245161 11.0659355,9.612 C11.4276774,9.96154839 11.6082581,10.4272258 11.6082581,11.0090323 C11.6082581,11.4329032 11.510129,11.8085806 11.313871,12.1343226 C11.1170323,12.4606452 10.8383226,12.7219355 10.4765806,12.9181935 C10.1148387,13.1150323 9.69445161,13.2323226 9.21541935,13.2718065 L9.21541935,14.5097419 L8.70851613,14.5097419 Z M9.52606452,17.9994194 C14.1961935,17.6899355 17.8548387,13.7775484 17.8548387,9.09174194 C17.8548387,4.1696129 13.850129,0.164322581 8.92741935,0.164322581 C4.81354839,0.164322581 1.25012903,2.94909677 0.261290323,6.9363871 C0.0876774194,7.63722581 0,8.36245161 0,9.09174194 C0,10.178129 0.192193548,11.2378065 0.571354839,12.2417419 C1.1943871,13.8948387 2.286,15.3156774 3.72890323,16.3503871 C3.82645161,16.4206452 3.96232258,16.398 4.03258065,16.3004516 C4.10283871,16.2029032 4.08019355,16.0670323 3.98264516,15.9967742 C2.61,15.012 1.57122581,13.6602581 0.978387097,12.087871 C0.617806452,11.1332903 0.435483871,10.1252903 0.435483871,9.09174194 C0.435483871,8.39787097 0.519096774,7.70806452 0.684,7.04148387 C1.62406452,3.24870968 5.01387097,0.599806452 8.92741935,0.599806452 C13.6097419,0.599806452 17.4193548,4.40941935 17.4193548,9.09174194 C17.4193548,13.5487742 13.9395484,17.2707097 9.4976129,17.5650968 C9.37741935,17.5732258 9.28683871,17.6765806 9.2943871,17.7967742 C9.30251613,17.9117419 9.39774194,18 9.51154839,18 C9.51619355,18 9.52141935,18 9.52606452,17.9994194 L9.52606452,17.9994194 Z" id="Page-1" fill="#009FDB"></path>
        </g>
    </g>
</svg>