<?xml version="1.0" encoding="UTF-8"?>
<svg width="18px" height="18px" viewBox="0 0 18 18" version="1.1" xmlns="http://www.w3.org/2000/svg" xmlns:xlink="http://www.w3.org/1999/xlink">
    <!-- Generator: Sketch 52.3 (67297) - http://www.bohemiancoding.com/sketch -->
    <title>icon.ICONO/ILUSTRATIVO/MISCELANEA/calendar</title>
    <desc>Created with Sketch.</desc>
    <g id="ICONO/ILUSTRATIVO/MISCELANEA/calendar" stroke="none" stroke-width="1" fill="none" fill-rule="evenodd">
        <g>
            <rect id="Rectangle" fill-opacity="0" fill="#BCD0F6" x="0" y="0" width="18" height="18"></rect>
            <path d="M16.8397146,17.0967285 L13.6684798,17.0967285 L13.6684798,13.880443 L17.5180842,13.880443 L17.5180842,16.4183777 C17.5180842,16.7928375 17.213549,17.0967285 16.8397146,17.0967285 L16.8397146,17.0967285 Z M9.25748799,17.0967285 L13.1910144,17.0967285 L13.1910144,13.880443 L9.25748799,13.880443 L9.25748799,17.0967285 Z M4.93804747,17.0967285 L8.78002261,17.0967285 L8.78002261,13.880443 L4.93804747,13.880443 L4.93804747,17.0967285 Z M1.15583498,17.0967285 C0.782000565,17.0967285 0.477465386,16.7928375 0.477465386,16.4183777 L0.477465386,13.880443 L4.46058209,13.880443 L4.46058209,17.0967285 L1.15583498,17.0967285 Z M0.477465386,9.56684405 L4.46058209,9.56684405 L4.46058209,5.94494675 L0.477465386,5.94494675 L0.477465386,9.56684405 Z M0.477465386,2.94736105 C0.477465386,2.573537 0.782000565,2.26964602 1.15583498,2.26964602 L2.85907036,2.26964602 L2.85907036,2.96961248 C2.85907036,3.6034604 3.37468211,4.11905786 4.00791184,4.11905786 C4.64177734,4.11905786 5.15802487,3.6034604 5.15802487,2.96961248 L5.15802487,2.26964602 L12.8381605,2.26964602 L12.8381605,2.96961248 C12.8381605,3.6034604 13.3537723,4.11905786 13.987002,4.11905786 C14.6208675,4.11905786 15.1364792,3.6034604 15.1364792,2.96961248 L15.1364792,2.26964602 L16.8397146,2.26964602 C17.213549,2.26964602 17.5180842,2.573537 17.5180842,2.94736105 L17.5180842,9.56684405 L13.6684798,9.56684405 L13.6684798,5.94494675 L14.7295846,5.94494675 C14.8611896,5.94494675 14.9686352,5.83813988 14.9686352,5.7059028 C14.9686352,5.57430148 14.8611896,5.46749461 14.7295846,5.46749461 L0.477465386,5.46749461 L0.477465386,2.94736105 Z M3.33653574,1.14880962 C3.33653574,0.778800104 3.63789206,0.477452145 4.00791184,0.477452145 C4.37856739,0.477452145 4.67992371,0.778800104 4.67992371,1.14880962 L4.67992371,2.96961248 C4.67992371,3.34025775 4.37856739,3.64160571 4.00791184,3.64160571 C3.63789206,3.64160571 3.33653574,3.34025775 3.33653574,2.96961248 L3.33653574,1.14880962 Z M13.3156259,1.14880962 C13.3156259,0.778800104 13.6169822,0.477452145 13.987002,0.477452145 C14.3570218,0.477452145 14.6583781,0.778800104 14.6583781,1.14880962 L14.6583781,2.96961248 C14.6583781,3.34025775 14.3570218,3.64160571 13.987002,3.64160571 C13.6169822,3.64160571 13.3156259,3.34025775 13.3156259,2.96961248 L13.3156259,1.14880962 Z M13.6684798,13.4023551 L17.5180842,13.4023551 L17.5180842,10.0442962 L13.6684798,10.0442962 L13.6684798,13.4023551 Z M9.25748799,13.4023551 L13.1910144,13.4023551 L13.1910144,10.0442962 L9.25748799,10.0442962 L9.25748799,13.4023551 Z M4.93804747,9.56684405 L8.78002261,9.56684405 L8.78002261,5.94494675 L4.93804747,5.94494675 L4.93804747,9.56684405 Z M9.25748799,9.56684405 L13.1910144,9.56684405 L13.1910144,5.94494675 L9.25748799,5.94494675 L9.25748799,9.56684405 Z M4.93804747,13.4023551 L8.78002261,13.4023551 L8.78002261,10.0442962 L4.93804747,10.0442962 L4.93804747,13.4023551 Z M0.477465386,13.4023551 L4.46058209,13.4023551 L4.46058209,10.0442962 L0.477465386,10.0442962 L0.477465386,13.4023551 Z M18,9.805888 C18,9.79825894 17.9961854,9.79190139 17.9955496,9.78427232 L17.9955496,2.94736105 C17.9955496,2.31033435 17.4773947,1.79155812 16.8397146,1.79155812 L15.1364792,1.79155812 L15.1364792,1.14880962 C15.1364792,0.515597456 14.6208675,0 13.987002,0 C13.3537723,0 12.8381605,0.515597456 12.8381605,1.14880962 L12.8381605,1.79155812 L5.15802487,1.79155812 L5.15802487,1.14880962 C5.15802487,0.515597456 4.64177734,0 4.00791184,0 C3.37468211,0 2.85907036,0.515597456 2.85907036,1.14880962 L2.85907036,1.79155812 L1.15583498,1.79155812 C0.518154846,1.79155812 0,2.31033435 0,2.94736105 L0,16.4183777 C0,17.0560402 0.518154846,17.5741806 1.15583498,17.5741806 L16.8397146,17.5741806 C17.4773947,17.5741806 17.9955496,17.0560402 17.9955496,16.4183777 L17.9955496,9.82750368 C17.9961854,9.81987462 18,9.81351706 18,9.805888 L18,9.805888 Z" id="calendar-slim" fill="#009FDB"></path>
        </g>
    </g>
</svg>