<?xml version="1.0" encoding="UTF-8"?>
<svg width="18px" height="18px" viewBox="0 0 18 18" version="1.1" xmlns="http://www.w3.org/2000/svg" xmlns:xlink="http://www.w3.org/1999/xlink">
    <!-- Generator: Sketch 52.3 (67297) - http://www.bohemiancoding.com/sketch -->
    <title>icon.ICONO/ILUSTRATIVO/PEOPLE/sight</title>
    <desc>Created with Sketch.</desc>
    <g id="ICONO/ILUSTRATIVO/PEOPLE/sight" stroke="none" stroke-width="1" fill="none" fill-rule="evenodd">
        <g>
            <rect id="Rectangle" fill-opacity="0" fill="#BCD0F6" x="0" y="0" width="18" height="18"></rect>
            <path d="M0.390739307,8.50325074 C0.715809005,8.05772082 3.71578733,4.15227353 8.99989901,4.15227353 C14.2822816,4.15227353 17.2845654,8.05772082 17.6096351,8.50267438 C17.6793752,8.59950365 17.8142446,8.62025278 17.9116502,8.55051265 C18.0079031,8.48019616 18.0286522,8.34475045 17.9583357,8.24849754 C17.620586,7.78452395 14.4955365,3.72 8.99989901,3.72 C3.50195602,3.72 0.379212013,7.78510031 0.0414622915,8.24849754 C-0.0288542034,8.34475045 -0.00752870903,8.48019616 0.0887241979,8.55051265 C0.127340634,8.57875452 0.171720716,8.59201091 0.216100799,8.59201091 C0.282959106,8.59201091 0.348088318,8.56146358 0.390739307,8.50325074 M8.99989901,8.38509598 C8.51863448,8.38509598 8.12728284,8.77644762 8.12728284,9.25771215 C8.12728284,9.73897669 8.51863448,10.1303283 8.99989901,10.1303283 C9.48116354,10.1303283 9.87251518,9.73897669 9.87251518,9.25771215 C9.87251518,8.77644762 9.48116354,8.38509598 8.99989901,8.38509598 M8.99989901,10.5626019 C8.28059585,10.5626019 7.6950093,9.97701531 7.6950093,9.25771215 C7.6950093,8.53783263 8.28059585,7.95282244 8.99989901,7.95282244 C9.71977854,7.95282244 10.3047887,8.53783263 10.3047887,9.25771215 C10.3047887,9.97701531 9.71977854,10.5626019 8.99989901,10.5626019 M8.99989901,5.84448033 C7.11806823,5.84448033 5.58666719,7.37588137 5.58666719,9.25771215 C5.58666719,11.1395429 7.11806823,12.670944 8.99989901,12.670944 C10.8823062,12.670944 12.4137072,11.1395429 12.4137072,9.25771215 C12.4137072,7.37588137 10.8823062,5.84448033 8.99989901,5.84448033 M8.99989901,13.1032175 C6.87945323,13.1032175 5.15439365,11.3781579 5.15439365,9.25771215 C5.15439365,7.13726638 6.87945323,5.41220679 8.99989901,5.41220679 C11.1209212,5.41220679 12.8459807,7.13726638 12.8459807,9.25771215 C12.8459807,11.3781579 11.1209212,13.1032175 8.99989901,13.1032175" id="sight-slim" fill="#009FDB"></path>
        </g>
    </g>
</svg>