<?xml version="1.0" encoding="UTF-8"?>
<svg width="20px" height="20px" viewBox="0 0 20 20" version="1.1" xmlns="http://www.w3.org/2000/svg" xmlns:xlink="http://www.w3.org/1999/xlink">
    <!-- Generator: Sketch 50.2 (55047) - http://www.bohemiancoding.com/sketch -->
    <title>info bold 2</title>
    <desc>Created with Sketch.</desc>
    <defs></defs>
    <g id="Symbols" stroke="none" stroke-width="1" fill="none" fill-rule="evenodd">
        <g id="icono-/-info-bold-" fill="#9B9B9B">
            <path d="M11.0588742,5.72224086 C10.8761167,5.90741362 10.63653,6 10.3414057,6 C10.0359488,6 9.79119578,5.90741362 9.60843827,5.72224086 C9.42438919,5.5370681 9.33333333,5.29688024 9.33333333,5.00033546 C9.33333333,4.70379067 9.42438919,4.4629319 9.60843827,4.27775914 C9.79119578,4.0932573 10.0359488,4 10.3414057,4 C10.63653,4 10.8761167,4.0932573 11.0588742,4.27775914 C11.2429233,4.4629319 11.3333333,4.70379067 11.3333333,5.00033546 C11.3333333,5.29688024 11.2429233,5.5370681 11.0588742,5.72224086 L11.0588742,5.72224086 Z M9.33333333,15.3333333 L11.3333333,15.3333333 L11.3333333,7.33333333 L9.33333333,7.33333333 L9.33333333,15.3333333 Z M10,0 C4.47733333,0 0,4.47733333 0,10 C0,15.5226667 4.47733333,20 10,20 C15.5226667,20 20,15.5226667 20,10 C20,4.47733333 15.5226667,0 10,0 L10,0 Z" id="info-bold-2"></path>
        </g>
    </g>
</svg>