<?xml version="1.0" encoding="UTF-8"?>
<svg width="14px" height="18px" viewBox="0 0 14 18" version="1.1" xmlns="http://www.w3.org/2000/svg" xmlns:xlink="http://www.w3.org/1999/xlink">
    <!-- Generator: Sketch 50.2 (55047) - http://www.bohemiancoding.com/sketch -->
    <title>Page 1</title>
    <desc>Created with Sketch.</desc>
    <defs></defs>
    <g id="Symbols" stroke="none" stroke-width="1" fill="none" fill-rule="evenodd">
        <g id="Entradatexto-/-passcode-/-bacio-" transform="translate(-249.000000, -4.000000)" fill="#4CA90C">
            <g id="Group-3" transform="translate(249.000000, 4.000000)">
                <path d="M3.71531608,5.16758591 C3.71531608,3.5466695 5.11412813,2.22740772 6.83305049,2.22740772 C8.55260925,2.22740772 9.9514213,3.5466695 9.9514213,5.16758591 L9.9514213,8.58442936 L3.71531608,8.58442936 L3.71531608,5.16758591 Z M13.6527365,9.75986423 C13.6457361,9.10946118 13.1022486,8.58442936 12.4295715,8.58442936 L12.178829,8.58442936 L12.178829,5.16758591 C12.178829,2.31841324 9.78086551,0 6.83305049,0 C3.88587187,0 1.48790836,2.31841324 1.48790836,5.16758591 L1.48790836,8.58442936 L1.22316504,8.58442936 C0.552397115,8.58442936 0.00890963089,9.10946118 0.00127280441,9.75986423 L0,9.75986423 L0,16.8258379 L0.00127280441,16.8258379 C0.00763682647,17.4775138 0.552397115,18 1.22316504,18 L12.4282987,18 C13.099703,18 13.6457361,17.4775138 13.6521001,16.8258379 L13.6546457,16.8258379 L13.6527365,9.75986423 Z" id="Page-1"></path>
            </g>
        </g>
    </g>
</svg>